<svg width="142" height="50" viewBox="0 0 142 50" fill="none" xmlns="http://www.w3.org/2000/svg">
<rect x="0.5" y="0.5" width="15" height="15" rx="3.5" fill="#18181B" stroke="#27272A"/>
<rect x="20.5" y="0.5" width="15" height="15" rx="3.5" fill="#4C1D95" stroke="#6D28D9"/>
<rect x="40.5" y="0.5" width="15" height="15" rx="3.5" fill="#5B21B6" stroke="#7C3AED"/>
<rect x="60.5" y="0.5" width="15" height="15" rx="3.5" fill="#6D28D9" stroke="#8B5CF6"/>
<rect x="80.5" y="0.5" width="15" height="15" rx="3.5" fill="#7C3AED" stroke="#A78BFA"/>
<rect x="100.5" y="0.5" width="15" height="15" rx="3.5" fill="#8B5CF6" stroke="#C4B5FD"/>
<path d="M1.76989 49V28.6364H9.9233C11.4214 28.6364 12.6709 28.8584 13.6719 29.3026C14.6728 29.7467 15.4252 30.3632 15.929 31.152C16.4328 31.9342 16.6847 32.8357 16.6847 33.8565C16.6847 34.652 16.5256 35.3513 16.2074 35.9545C15.8892 36.5511 15.4517 37.0417 14.8949 37.4261C14.3447 37.804 13.715 38.0724 13.0057 38.2315V38.4304C13.7813 38.4635 14.5071 38.6823 15.1832 39.0866C15.866 39.491 16.4195 40.0578 16.8438 40.7869C17.268 41.5095 17.4801 42.3712 17.4801 43.3722C17.4801 44.4527 17.2116 45.4171 16.6747 46.2656C16.1444 47.1075 15.3589 47.7737 14.3182 48.2642C13.2775 48.7547 11.9948 49 10.4702 49H1.76989ZM6.07528 45.4801H9.58523C10.785 45.4801 11.66 45.2514 12.2102 44.794C12.7604 44.33 13.0355 43.7135 13.0355 42.9446C13.0355 42.3812 12.8996 41.884 12.6278 41.4531C12.3561 41.0223 11.9683 40.6842 11.4645 40.4389C10.9673 40.1937 10.3741 40.071 9.68466 40.071H6.07528V45.4801ZM6.07528 37.1577H9.26705C9.85701 37.1577 10.3807 37.0549 10.8381 36.8494C11.3021 36.6373 11.6667 36.339 11.9318 35.9545C12.2036 35.5701 12.3395 35.1094 12.3395 34.5724C12.3395 33.8366 12.0777 33.2434 11.554 32.7926C11.0369 32.3419 10.3011 32.1165 9.34659 32.1165H6.07528V37.1577ZM27.1623 49.2983C25.5913 49.2983 24.239 48.9801 23.1055 48.3438C21.9786 47.7008 21.1102 46.7926 20.5004 45.6193C19.8905 44.4394 19.5856 43.044 19.5856 41.4332C19.5856 39.8622 19.8905 38.4834 20.5004 37.2969C21.1102 36.1103 21.9686 35.1856 23.0756 34.5227C24.1893 33.8598 25.4951 33.5284 26.9933 33.5284C28.0008 33.5284 28.9388 33.6908 29.8072 34.0156C30.6822 34.3338 31.4445 34.8144 32.0941 35.4574C32.7504 36.1004 33.2608 36.9091 33.6254 37.8835C33.9899 38.8513 34.1722 39.9848 34.1722 41.2841V42.4474H21.2759V39.8224H30.185C30.185 39.2126 30.0524 38.6723 29.7873 38.2017C29.5221 37.7311 29.1542 37.3632 28.6836 37.098C28.2196 36.8262 27.6793 36.6903 27.0629 36.6903C26.4199 36.6903 25.8498 36.8395 25.3526 37.1378C24.8621 37.4295 24.4776 37.8239 24.1992 38.321C23.9208 38.8116 23.7783 39.3584 23.7717 39.9616V42.4574C23.7717 43.2131 23.9109 43.866 24.1893 44.4162C24.4743 44.9664 24.8754 45.3906 25.3924 45.6889C25.9094 45.9872 26.5226 46.1364 27.2319 46.1364C27.7025 46.1364 28.1334 46.0701 28.5245 45.9375C28.9156 45.8049 29.2504 45.6061 29.5288 45.3409C29.8072 45.0758 30.0193 44.7509 30.1651 44.3665L34.0827 44.625C33.8839 45.5663 33.4762 46.3883 32.8597 47.0909C32.2499 47.7869 31.4611 48.3305 30.4933 48.7216C29.5321 49.1061 28.4218 49.2983 27.1623 49.2983ZM41.1722 40.1705V49H36.9364V28.6364H41.0529V36.4219H41.2319C41.5766 35.5204 42.1334 34.8144 42.9023 34.304C43.6713 33.7869 44.6358 33.5284 45.7958 33.5284C46.8564 33.5284 47.7811 33.7604 48.57 34.2244C49.3654 34.6818 49.9819 35.3414 50.4194 36.2031C50.8635 37.0582 51.0823 38.0824 51.0756 39.2756V49H46.8398V40.0312C46.8465 39.09 46.6078 38.3575 46.1239 37.8338C45.6467 37.3101 44.9772 37.0483 44.1154 37.0483C43.5387 37.0483 43.0283 37.1709 42.5842 37.4162C42.1467 37.6615 41.802 38.0194 41.5501 38.4901C41.3048 38.9541 41.1789 39.5142 41.1722 40.1705ZM58.7642 49.2884C57.7898 49.2884 56.9214 49.1193 56.1591 48.7812C55.3968 48.4366 54.7936 47.9295 54.3494 47.2599C53.9119 46.5838 53.6932 45.742 53.6932 44.7344C53.6932 43.8859 53.849 43.1733 54.1605 42.5966C54.4721 42.0199 54.8963 41.5559 55.4332 41.2045C55.9702 40.8532 56.58 40.5881 57.2628 40.4091C57.9522 40.2301 58.6747 40.1042 59.4304 40.0312C60.3187 39.9384 61.0346 39.8523 61.5781 39.7727C62.1217 39.6866 62.5161 39.5606 62.7614 39.3949C63.0066 39.2292 63.1293 38.9839 63.1293 38.6591V38.5994C63.1293 37.9697 62.9304 37.4825 62.5327 37.1378C62.1416 36.7931 61.5848 36.6207 60.8622 36.6207C60.0999 36.6207 59.4934 36.7898 59.0426 37.1278C58.5919 37.4593 58.2936 37.8769 58.1477 38.3807L54.2301 38.0625C54.429 37.1345 54.8201 36.3324 55.4034 35.6562C55.9867 34.9735 56.7391 34.4498 57.6605 34.0852C58.5885 33.714 59.6624 33.5284 60.8821 33.5284C61.7306 33.5284 62.5426 33.6278 63.3182 33.8267C64.1004 34.0256 64.7931 34.3338 65.3963 34.7514C66.0062 35.169 66.4867 35.706 66.8381 36.3622C67.1894 37.0118 67.3651 37.7907 67.3651 38.6989V49H63.348V46.8821H63.2287C62.9834 47.3594 62.6553 47.7803 62.2443 48.1449C61.8333 48.5028 61.3395 48.7846 60.7628 48.9901C60.1861 49.1889 59.5199 49.2884 58.7642 49.2884ZM59.9773 46.3651C60.6004 46.3651 61.1506 46.2424 61.6278 45.9972C62.1051 45.7453 62.4796 45.4072 62.7514 44.983C63.0232 44.5587 63.1591 44.0781 63.1591 43.5412V41.9205C63.0265 42.0066 62.8442 42.0862 62.6122 42.1591C62.3868 42.2254 62.1316 42.2884 61.8466 42.348C61.5616 42.401 61.2765 42.4508 60.9915 42.4972C60.7064 42.5369 60.4479 42.5734 60.2159 42.6065C59.7188 42.6795 59.2846 42.7955 58.9134 42.9545C58.5421 43.1136 58.2538 43.3291 58.0483 43.6009C57.8428 43.866 57.7401 44.1974 57.7401 44.5952C57.7401 45.1719 57.9489 45.6127 58.3665 45.9176C58.7907 46.2159 59.3277 46.3651 59.9773 46.3651ZM84.343 33.7273L79.0036 49H74.2308L68.8913 33.7273H73.3658L76.5376 44.6548H76.6967L79.8587 33.7273H84.343ZM86.5107 49V33.7273H90.7464V49H86.5107ZM88.6385 31.7585C88.0088 31.7585 87.4685 31.5497 87.0178 31.1321C86.5736 30.7079 86.3516 30.2008 86.3516 29.6108C86.3516 29.0275 86.5736 28.527 87.0178 28.1094C87.4685 27.6851 88.0088 27.473 88.6385 27.473C89.2682 27.473 89.8052 27.6851 90.2493 28.1094C90.7 28.527 90.9254 29.0275 90.9254 29.6108C90.9254 30.2008 90.7 30.7079 90.2493 31.1321C89.8052 31.5497 89.2682 31.7585 88.6385 31.7585ZM101.04 49.2983C99.4956 49.2983 98.1599 48.9702 97.033 48.3139C95.9128 47.651 95.0477 46.7296 94.4379 45.5497C93.828 44.3632 93.5231 42.9877 93.5231 41.4233C93.5231 39.8456 93.828 38.4669 94.4379 37.2869C95.0477 36.1004 95.9128 35.179 97.033 34.5227C98.1599 33.8598 99.4956 33.5284 101.04 33.5284C102.585 33.5284 103.917 33.8598 105.037 34.5227C106.164 35.179 107.033 36.1004 107.642 37.2869C108.252 38.4669 108.557 39.8456 108.557 41.4233C108.557 42.9877 108.252 44.3632 107.642 45.5497C107.033 46.7296 106.164 47.651 105.037 48.3139C103.917 48.9702 102.585 49.2983 101.04 49.2983ZM101.06 46.017C101.763 46.017 102.349 45.8182 102.82 45.4205C103.291 45.0161 103.645 44.4659 103.884 43.7699C104.129 43.0739 104.252 42.2817 104.252 41.3935C104.252 40.5052 104.129 39.7131 103.884 39.017C103.645 38.321 103.291 37.7708 102.82 37.3665C102.349 36.9621 101.763 36.7599 101.06 36.7599C100.351 36.7599 99.7541 36.9621 99.2702 37.3665C98.793 37.7708 98.4317 38.321 98.1864 39.017C97.9478 39.7131 97.8285 40.5052 97.8285 41.3935C97.8285 42.2817 97.9478 43.0739 98.1864 43.7699C98.4317 44.4659 98.793 45.0161 99.2702 45.4205C99.7541 45.8182 100.351 46.017 101.06 46.017ZM111.311 49V33.7273H115.418V36.392H115.577C115.855 35.4441 116.323 34.7282 116.979 34.2443C117.635 33.7538 118.391 33.5085 119.246 33.5085C119.458 33.5085 119.687 33.5218 119.932 33.5483C120.177 33.5748 120.393 33.6113 120.578 33.6577V37.4162C120.38 37.3565 120.105 37.3035 119.753 37.2571C119.402 37.2107 119.08 37.1875 118.789 37.1875C118.166 37.1875 117.609 37.3234 117.118 37.5952C116.634 37.8603 116.25 38.2315 115.965 38.7088C115.686 39.1861 115.547 39.7363 115.547 40.3594V49H111.311ZM135.476 38.0824L131.598 38.321C131.532 37.9896 131.389 37.6913 131.17 37.4261C130.952 37.1544 130.663 36.9389 130.305 36.7798C129.954 36.6141 129.533 36.5312 129.043 36.5312C128.386 36.5312 127.833 36.6705 127.382 36.9489C126.931 37.2206 126.706 37.5852 126.706 38.0426C126.706 38.4072 126.852 38.7154 127.143 38.9673C127.435 39.2192 127.936 39.4214 128.645 39.5739L131.409 40.1307C132.894 40.4356 134.001 40.9261 134.73 41.6023C135.459 42.2784 135.824 43.1667 135.824 44.267C135.824 45.268 135.529 46.1463 134.939 46.902C134.356 47.6577 133.554 48.2476 132.533 48.6719C131.518 49.0895 130.348 49.2983 129.023 49.2983C127.001 49.2983 125.39 48.8774 124.19 48.0355C122.997 47.187 122.298 46.0336 122.092 44.5753L126.259 44.3565C126.384 44.973 126.689 45.4437 127.173 45.7685C127.657 46.0866 128.277 46.2457 129.033 46.2457C129.775 46.2457 130.372 46.1032 130.822 45.8182C131.28 45.5265 131.512 45.152 131.518 44.6946C131.512 44.3101 131.349 43.9953 131.031 43.75C130.713 43.4981 130.223 43.3059 129.56 43.1733L126.915 42.6463C125.423 42.348 124.313 41.831 123.584 41.0952C122.861 40.3594 122.5 39.4214 122.5 38.2812C122.5 37.3002 122.765 36.455 123.295 35.7457C123.832 35.0365 124.585 34.4896 125.553 34.1051C126.527 33.7206 127.667 33.5284 128.973 33.5284C130.902 33.5284 132.42 33.9361 133.527 34.7514C134.641 35.5668 135.29 36.6771 135.476 38.0824Z" fill="white"/>
</svg>
