<svg xmlns="http://www.w3.org/2000/svg" width="56" height="56" viewBox="0 0 56 56" fill="none"><circle cx="28" cy="28" r="28" fill="#EAFDFE"></circle><path fill-rule="evenodd" clip-rule="evenodd" d="M28 39C28 39 37 33 37 26C37 23.6131 36.0518 21.3239 34.364 19.636C32.6761 17.9482 30.3869 17 28 17C25.6131 17 23.3239 17.9482 21.636 19.636C19.9482 21.3239 19 23.6131 19 26C19 33 28 39 28 39ZM31 26C31 27.6569 29.6569 29 28 29C26.3431 29 25 27.6569 25 26C25 24.3431 26.3431 23 28 23C29.6569 23 31 24.3431 31 26Z" fill="#0583F2"></path></svg>