<svg xmlns="http://www.w3.org/2000/svg" width="56" height="56" viewBox="0 0 56 56" fill="none"><circle cx="28" cy="28" r="28" fill="#EAFDFE"></circle><path d="M35.6181 38.916L35.6001 38.9142C29.3752 38.2379 23.5981 34.6779 20.2364 29.3901C18.4624 26.6504 17.3584 23.5314 17.0137 20.2857L17.0122 20.2701C16.9747 19.8553 17.024 19.4372 17.1569 19.0425C17.2899 18.6478 17.5035 18.2851 17.7843 17.9775C18.0651 17.6699 18.4069 17.4242 18.7879 17.2559C19.1688 17.0876 19.5807 17.0005 19.9972 17.0001L22.9937 17.0001C23.7197 16.9943 24.4233 17.2519 24.9739 17.7254C25.5259 18.2001 25.8864 18.8593 25.9883 19.5801L25.9896 19.5893C26.1063 20.4743 26.3226 21.3432 26.6346 22.1794C26.8361 22.716 26.8796 23.299 26.76 23.8596C26.6404 24.4205 26.3625 24.9354 25.9592 25.3432L25.9552 25.3472L25.2381 26.0643C26.414 27.9089 27.9793 29.4742 29.8239 30.6501L30.541 29.933L30.545 29.929C30.9528 29.5258 31.4677 29.2478 32.0287 29.1282C32.5892 29.0086 33.1722 29.0522 33.7088 29.2536C34.5451 29.5656 35.4139 29.782 36.2989 29.8987L36.3078 29.8999C37.0365 30.0027 37.7019 30.3697 38.1776 30.9311C38.6504 31.4891 38.9029 32.2004 38.8881 32.9313V35.9201C38.8881 35.9201 38.9722 37.0278 38 38C36.8804 39.1196 35.6181 38.916 35.6181 38.916Z" fill="#0583F2"></path></svg>